<mxfile host="app.diagrams.net" modified="2024-01-29T19:02:10.930Z" agent="Mozilla/5.0 (Windows NT 10.0; Win64; x64; rv:122.0) Gecko/20100101 Firefox/122.0" etag="ZUvKUZruoYAVhsAL98X6" version="23.0.2" type="github">
  <diagram id="C5RBs43oDa-KdzZeNtuy" name="Page-1">
    <mxGraphModel dx="1588" dy="772" grid="1" gridSize="10" guides="1" tooltips="1" connect="1" arrows="1" fold="1" page="1" pageScale="1" pageWidth="827" pageHeight="1169" math="0" shadow="0">
      <root>
        <mxCell id="WIyWlLk6GJQsqaUBKTNV-0" />
        <mxCell id="WIyWlLk6GJQsqaUBKTNV-1" parent="WIyWlLk6GJQsqaUBKTNV-0" />
        <mxCell id="WIyWlLk6GJQsqaUBKTNV-5" value="No" style="edgeStyle=orthogonalEdgeStyle;rounded=0;html=1;jettySize=auto;orthogonalLoop=1;fontSize=11;endArrow=block;endFill=0;endSize=8;strokeWidth=1;shadow=0;labelBackgroundColor=none;" parent="WIyWlLk6GJQsqaUBKTNV-1" source="WIyWlLk6GJQsqaUBKTNV-6" target="WIyWlLk6GJQsqaUBKTNV-7" edge="1">
          <mxGeometry y="10" relative="1" as="geometry">
            <mxPoint as="offset" />
          </mxGeometry>
        </mxCell>
        <mxCell id="WIyWlLk6GJQsqaUBKTNV-6" value="¿Cumple con los requisitos?" style="rhombus;whiteSpace=wrap;html=1;shadow=0;fontFamily=Helvetica;fontSize=12;align=center;strokeWidth=1;spacing=6;spacingTop=-4;" parent="WIyWlLk6GJQsqaUBKTNV-1" vertex="1">
          <mxGeometry x="70" y="310" width="100" height="80" as="geometry" />
        </mxCell>
        <mxCell id="WIyWlLk6GJQsqaUBKTNV-7" value="No inicia proceso" style="rounded=1;whiteSpace=wrap;html=1;fontSize=12;glass=0;strokeWidth=1;shadow=0;" parent="WIyWlLk6GJQsqaUBKTNV-1" vertex="1">
          <mxGeometry x="220" y="330" width="120" height="40" as="geometry" />
        </mxCell>
        <mxCell id="ndp9U7qzzrTuDDMny6gd-10" style="edgeStyle=orthogonalEdgeStyle;rounded=0;orthogonalLoop=1;jettySize=auto;html=1;exitX=0.5;exitY=1;exitDx=0;exitDy=0;entryX=0.5;entryY=0;entryDx=0;entryDy=0;" edge="1" parent="WIyWlLk6GJQsqaUBKTNV-1" source="ndp9U7qzzrTuDDMny6gd-1" target="ndp9U7qzzrTuDDMny6gd-2">
          <mxGeometry relative="1" as="geometry" />
        </mxCell>
        <mxCell id="ndp9U7qzzrTuDDMny6gd-1" value="Solicitud de residencias" style="rounded=0;whiteSpace=wrap;html=1;" vertex="1" parent="WIyWlLk6GJQsqaUBKTNV-1">
          <mxGeometry x="60" y="170" width="120" height="40" as="geometry" />
        </mxCell>
        <mxCell id="ndp9U7qzzrTuDDMny6gd-11" style="edgeStyle=orthogonalEdgeStyle;rounded=0;orthogonalLoop=1;jettySize=auto;html=1;exitX=0.5;exitY=1;exitDx=0;exitDy=0;entryX=0.5;entryY=0;entryDx=0;entryDy=0;" edge="1" parent="WIyWlLk6GJQsqaUBKTNV-1" source="ndp9U7qzzrTuDDMny6gd-2" target="WIyWlLk6GJQsqaUBKTNV-6">
          <mxGeometry relative="1" as="geometry" />
        </mxCell>
        <mxCell id="ndp9U7qzzrTuDDMny6gd-2" value="Datos de anteproyecto" style="rounded=0;whiteSpace=wrap;html=1;" vertex="1" parent="WIyWlLk6GJQsqaUBKTNV-1">
          <mxGeometry x="60" y="240" width="120" height="40" as="geometry" />
        </mxCell>
        <mxCell id="ndp9U7qzzrTuDDMny6gd-14" style="edgeStyle=orthogonalEdgeStyle;rounded=0;orthogonalLoop=1;jettySize=auto;html=1;exitX=0.5;exitY=1;exitDx=0;exitDy=0;entryX=0.5;entryY=0;entryDx=0;entryDy=0;" edge="1" parent="WIyWlLk6GJQsqaUBKTNV-1" source="ndp9U7qzzrTuDDMny6gd-4" target="ndp9U7qzzrTuDDMny6gd-5">
          <mxGeometry relative="1" as="geometry" />
        </mxCell>
        <mxCell id="ndp9U7qzzrTuDDMny6gd-4" value="Sube los documentos para iniciar" style="rounded=0;whiteSpace=wrap;html=1;" vertex="1" parent="WIyWlLk6GJQsqaUBKTNV-1">
          <mxGeometry x="60" y="430" width="120" height="30" as="geometry" />
        </mxCell>
        <mxCell id="ndp9U7qzzrTuDDMny6gd-18" value="No" style="edgeStyle=orthogonalEdgeStyle;rounded=0;orthogonalLoop=1;jettySize=auto;html=1;exitX=1;exitY=0.5;exitDx=0;exitDy=0;entryX=0;entryY=0.5;entryDx=0;entryDy=0;" edge="1" parent="WIyWlLk6GJQsqaUBKTNV-1" source="ndp9U7qzzrTuDDMny6gd-5" target="ndp9U7qzzrTuDDMny6gd-15">
          <mxGeometry x="-0.0909" y="12" relative="1" as="geometry">
            <mxPoint as="offset" />
          </mxGeometry>
        </mxCell>
        <mxCell id="ndp9U7qzzrTuDDMny6gd-21" value="" style="edgeStyle=orthogonalEdgeStyle;rounded=0;orthogonalLoop=1;jettySize=auto;html=1;" edge="1" parent="WIyWlLk6GJQsqaUBKTNV-1" source="ndp9U7qzzrTuDDMny6gd-5" target="ndp9U7qzzrTuDDMny6gd-20">
          <mxGeometry relative="1" as="geometry" />
        </mxCell>
        <mxCell id="ndp9U7qzzrTuDDMny6gd-5" value="¿Documentos aceptados?" style="rhombus;whiteSpace=wrap;html=1;" vertex="1" parent="WIyWlLk6GJQsqaUBKTNV-1">
          <mxGeometry x="75" y="490" width="90" height="84" as="geometry" />
        </mxCell>
        <mxCell id="ndp9U7qzzrTuDDMny6gd-12" style="edgeStyle=orthogonalEdgeStyle;rounded=0;orthogonalLoop=1;jettySize=auto;html=1;exitX=0.5;exitY=1;exitDx=0;exitDy=0;entryX=0.493;entryY=-0.113;entryDx=0;entryDy=0;entryPerimeter=0;" edge="1" parent="WIyWlLk6GJQsqaUBKTNV-1" source="WIyWlLk6GJQsqaUBKTNV-6" target="ndp9U7qzzrTuDDMny6gd-4">
          <mxGeometry relative="1" as="geometry" />
        </mxCell>
        <mxCell id="ndp9U7qzzrTuDDMny6gd-13" value="&lt;div&gt;Si&lt;/div&gt;" style="edgeLabel;html=1;align=center;verticalAlign=middle;resizable=0;points=[];" vertex="1" connectable="0" parent="ndp9U7qzzrTuDDMny6gd-12">
          <mxGeometry x="-0.027" y="-1" relative="1" as="geometry">
            <mxPoint x="12" as="offset" />
          </mxGeometry>
        </mxCell>
        <mxCell id="ndp9U7qzzrTuDDMny6gd-17" style="edgeStyle=orthogonalEdgeStyle;rounded=0;orthogonalLoop=1;jettySize=auto;html=1;exitX=0.5;exitY=0;exitDx=0;exitDy=0;entryX=1;entryY=0.5;entryDx=0;entryDy=0;" edge="1" parent="WIyWlLk6GJQsqaUBKTNV-1" source="ndp9U7qzzrTuDDMny6gd-15" target="ndp9U7qzzrTuDDMny6gd-4">
          <mxGeometry relative="1" as="geometry" />
        </mxCell>
        <mxCell id="ndp9U7qzzrTuDDMny6gd-15" value="Realizar correcciones" style="rounded=0;whiteSpace=wrap;html=1;" vertex="1" parent="WIyWlLk6GJQsqaUBKTNV-1">
          <mxGeometry x="220" y="517" width="120" height="30" as="geometry" />
        </mxCell>
        <mxCell id="ndp9U7qzzrTuDDMny6gd-20" value="1" style="ellipse;whiteSpace=wrap;html=1;" vertex="1" parent="WIyWlLk6GJQsqaUBKTNV-1">
          <mxGeometry x="105" y="599" width="30" height="30" as="geometry" />
        </mxCell>
        <mxCell id="ndp9U7qzzrTuDDMny6gd-24" value="" style="edgeStyle=orthogonalEdgeStyle;rounded=0;orthogonalLoop=1;jettySize=auto;html=1;" edge="1" parent="WIyWlLk6GJQsqaUBKTNV-1" source="ndp9U7qzzrTuDDMny6gd-22" target="ndp9U7qzzrTuDDMny6gd-23">
          <mxGeometry relative="1" as="geometry" />
        </mxCell>
        <mxCell id="ndp9U7qzzrTuDDMny6gd-22" value="1" style="ellipse;whiteSpace=wrap;html=1;" vertex="1" parent="WIyWlLk6GJQsqaUBKTNV-1">
          <mxGeometry x="505" y="50" width="30" height="30" as="geometry" />
        </mxCell>
        <mxCell id="ndp9U7qzzrTuDDMny6gd-30" style="edgeStyle=orthogonalEdgeStyle;rounded=0;orthogonalLoop=1;jettySize=auto;html=1;exitX=0.5;exitY=1;exitDx=0;exitDy=0;" edge="1" parent="WIyWlLk6GJQsqaUBKTNV-1" source="ndp9U7qzzrTuDDMny6gd-23">
          <mxGeometry relative="1" as="geometry">
            <mxPoint x="520" y="160" as="targetPoint" />
          </mxGeometry>
        </mxCell>
        <mxCell id="ndp9U7qzzrTuDDMny6gd-23" value="Sube documentación de proyecto" style="whiteSpace=wrap;html=1;" vertex="1" parent="WIyWlLk6GJQsqaUBKTNV-1">
          <mxGeometry x="460" y="101" width="120" height="29" as="geometry" />
        </mxCell>
        <mxCell id="ndp9U7qzzrTuDDMny6gd-25" value="No" style="edgeStyle=orthogonalEdgeStyle;rounded=0;orthogonalLoop=1;jettySize=auto;html=1;exitX=1;exitY=0.5;exitDx=0;exitDy=0;entryX=0;entryY=0.5;entryDx=0;entryDy=0;" edge="1" parent="WIyWlLk6GJQsqaUBKTNV-1" source="ndp9U7qzzrTuDDMny6gd-27" target="ndp9U7qzzrTuDDMny6gd-28">
          <mxGeometry x="-0.0909" y="12" relative="1" as="geometry">
            <mxPoint as="offset" />
            <mxPoint x="620" y="204" as="targetPoint" />
          </mxGeometry>
        </mxCell>
        <mxCell id="ndp9U7qzzrTuDDMny6gd-33" value="&lt;div&gt;Si&lt;/div&gt;" style="edgeStyle=orthogonalEdgeStyle;rounded=0;orthogonalLoop=1;jettySize=auto;html=1;exitX=0.5;exitY=1;exitDx=0;exitDy=0;entryX=0.5;entryY=0;entryDx=0;entryDy=0;" edge="1" parent="WIyWlLk6GJQsqaUBKTNV-1" source="ndp9U7qzzrTuDDMny6gd-27" target="ndp9U7qzzrTuDDMny6gd-32">
          <mxGeometry x="-0.1765" y="15" relative="1" as="geometry">
            <mxPoint as="offset" />
          </mxGeometry>
        </mxCell>
        <mxCell id="ndp9U7qzzrTuDDMny6gd-27" value="¿Documentos aceptados?" style="rhombus;whiteSpace=wrap;html=1;" vertex="1" parent="WIyWlLk6GJQsqaUBKTNV-1">
          <mxGeometry x="475" y="162" width="90" height="84" as="geometry" />
        </mxCell>
        <mxCell id="ndp9U7qzzrTuDDMny6gd-34" style="edgeStyle=orthogonalEdgeStyle;rounded=0;orthogonalLoop=1;jettySize=auto;html=1;exitX=0.5;exitY=0;exitDx=0;exitDy=0;entryX=1;entryY=0.5;entryDx=0;entryDy=0;" edge="1" parent="WIyWlLk6GJQsqaUBKTNV-1" source="ndp9U7qzzrTuDDMny6gd-28" target="ndp9U7qzzrTuDDMny6gd-23">
          <mxGeometry relative="1" as="geometry" />
        </mxCell>
        <mxCell id="ndp9U7qzzrTuDDMny6gd-28" value="Realizar correcciones" style="rounded=0;whiteSpace=wrap;html=1;" vertex="1" parent="WIyWlLk6GJQsqaUBKTNV-1">
          <mxGeometry x="600" y="189" width="120" height="30" as="geometry" />
        </mxCell>
        <mxCell id="ndp9U7qzzrTuDDMny6gd-40" style="edgeStyle=orthogonalEdgeStyle;rounded=0;orthogonalLoop=1;jettySize=auto;html=1;exitX=0.5;exitY=1;exitDx=0;exitDy=0;" edge="1" parent="WIyWlLk6GJQsqaUBKTNV-1" source="ndp9U7qzzrTuDDMny6gd-32">
          <mxGeometry relative="1" as="geometry">
            <mxPoint x="520.1904761904761" y="350" as="targetPoint" />
          </mxGeometry>
        </mxCell>
        <mxCell id="ndp9U7qzzrTuDDMny6gd-32" value="Sube documentación final" style="rounded=0;whiteSpace=wrap;html=1;" vertex="1" parent="WIyWlLk6GJQsqaUBKTNV-1">
          <mxGeometry x="460" y="280" width="120" height="41" as="geometry" />
        </mxCell>
        <mxCell id="ndp9U7qzzrTuDDMny6gd-35" value="No" style="edgeStyle=orthogonalEdgeStyle;rounded=0;orthogonalLoop=1;jettySize=auto;html=1;exitX=1;exitY=0.5;exitDx=0;exitDy=0;entryX=0;entryY=0.5;entryDx=0;entryDy=0;" edge="1" parent="WIyWlLk6GJQsqaUBKTNV-1" source="ndp9U7qzzrTuDDMny6gd-37" target="ndp9U7qzzrTuDDMny6gd-38">
          <mxGeometry x="-0.0909" y="12" relative="1" as="geometry">
            <mxPoint as="offset" />
          </mxGeometry>
        </mxCell>
        <mxCell id="ndp9U7qzzrTuDDMny6gd-36" value="" style="edgeStyle=orthogonalEdgeStyle;rounded=0;orthogonalLoop=1;jettySize=auto;html=1;entryX=0.5;entryY=0;entryDx=0;entryDy=0;" edge="1" parent="WIyWlLk6GJQsqaUBKTNV-1" source="ndp9U7qzzrTuDDMny6gd-37" target="ndp9U7qzzrTuDDMny6gd-43">
          <mxGeometry relative="1" as="geometry">
            <mxPoint x="520" y="460" as="targetPoint" />
          </mxGeometry>
        </mxCell>
        <mxCell id="ndp9U7qzzrTuDDMny6gd-42" value="Si" style="edgeLabel;html=1;align=center;verticalAlign=middle;resizable=0;points=[];" vertex="1" connectable="0" parent="ndp9U7qzzrTuDDMny6gd-36">
          <mxGeometry x="0.5249" y="1" relative="1" as="geometry">
            <mxPoint x="14" y="-14" as="offset" />
          </mxGeometry>
        </mxCell>
        <mxCell id="ndp9U7qzzrTuDDMny6gd-37" value="¿Documentos aceptados?" style="rhombus;whiteSpace=wrap;html=1;" vertex="1" parent="WIyWlLk6GJQsqaUBKTNV-1">
          <mxGeometry x="475" y="351" width="90" height="84" as="geometry" />
        </mxCell>
        <mxCell id="ndp9U7qzzrTuDDMny6gd-41" style="edgeStyle=orthogonalEdgeStyle;rounded=0;orthogonalLoop=1;jettySize=auto;html=1;exitX=0.5;exitY=0;exitDx=0;exitDy=0;entryX=1;entryY=0.5;entryDx=0;entryDy=0;" edge="1" parent="WIyWlLk6GJQsqaUBKTNV-1" source="ndp9U7qzzrTuDDMny6gd-38" target="ndp9U7qzzrTuDDMny6gd-32">
          <mxGeometry relative="1" as="geometry" />
        </mxCell>
        <mxCell id="ndp9U7qzzrTuDDMny6gd-38" value="Realizar correcciones" style="rounded=0;whiteSpace=wrap;html=1;" vertex="1" parent="WIyWlLk6GJQsqaUBKTNV-1">
          <mxGeometry x="620" y="378" width="120" height="30" as="geometry" />
        </mxCell>
        <mxCell id="ndp9U7qzzrTuDDMny6gd-45" style="edgeStyle=orthogonalEdgeStyle;rounded=0;orthogonalLoop=1;jettySize=auto;html=1;exitX=0.5;exitY=1;exitDx=0;exitDy=0;entryX=0.5;entryY=0;entryDx=0;entryDy=0;" edge="1" parent="WIyWlLk6GJQsqaUBKTNV-1" source="ndp9U7qzzrTuDDMny6gd-43" target="ndp9U7qzzrTuDDMny6gd-44">
          <mxGeometry relative="1" as="geometry" />
        </mxCell>
        <mxCell id="ndp9U7qzzrTuDDMny6gd-43" value="Liberación de residencias" style="rounded=0;whiteSpace=wrap;html=1;" vertex="1" parent="WIyWlLk6GJQsqaUBKTNV-1">
          <mxGeometry x="460" y="470" width="120" height="30" as="geometry" />
        </mxCell>
        <mxCell id="ndp9U7qzzrTuDDMny6gd-44" value="Fin" style="rounded=1;whiteSpace=wrap;html=1;" vertex="1" parent="WIyWlLk6GJQsqaUBKTNV-1">
          <mxGeometry x="495" y="530" width="50" height="30" as="geometry" />
        </mxCell>
        <mxCell id="ndp9U7qzzrTuDDMny6gd-49" style="edgeStyle=orthogonalEdgeStyle;rounded=0;orthogonalLoop=1;jettySize=auto;html=1;exitX=0.5;exitY=1;exitDx=0;exitDy=0;entryX=0.5;entryY=0;entryDx=0;entryDy=0;" edge="1" parent="WIyWlLk6GJQsqaUBKTNV-1" source="ndp9U7qzzrTuDDMny6gd-46" target="ndp9U7qzzrTuDDMny6gd-48">
          <mxGeometry relative="1" as="geometry" />
        </mxCell>
        <mxCell id="ndp9U7qzzrTuDDMny6gd-46" value="Inicio" style="rounded=1;whiteSpace=wrap;html=1;" vertex="1" parent="WIyWlLk6GJQsqaUBKTNV-1">
          <mxGeometry x="95" y="55" width="50" height="20" as="geometry" />
        </mxCell>
        <mxCell id="ndp9U7qzzrTuDDMny6gd-50" style="edgeStyle=orthogonalEdgeStyle;rounded=0;orthogonalLoop=1;jettySize=auto;html=1;exitX=0.5;exitY=1;exitDx=0;exitDy=0;entryX=0.5;entryY=0;entryDx=0;entryDy=0;" edge="1" parent="WIyWlLk6GJQsqaUBKTNV-1" source="ndp9U7qzzrTuDDMny6gd-48" target="ndp9U7qzzrTuDDMny6gd-1">
          <mxGeometry relative="1" as="geometry" />
        </mxCell>
        <mxCell id="ndp9U7qzzrTuDDMny6gd-48" value="Inicio de residencias" style="rounded=0;whiteSpace=wrap;html=1;" vertex="1" parent="WIyWlLk6GJQsqaUBKTNV-1">
          <mxGeometry x="60" y="110" width="120" height="20" as="geometry" />
        </mxCell>
      </root>
    </mxGraphModel>
  </diagram>
</mxfile>
